<svg id="svg" version="1.1" xmlns="http://www.w3.org/2000/svg" xmlns:xlink="http://www.w3.org/1999/xlink" width="400" height="400" viewBox="0, 0, 400,400"><g id="svgg"><path id="path0" d="M158.118 23.633 C 157.943 23.803,157.170 24.001,156.400 24.071 L 155.000 24.200 154.898 70.835 L 154.797 117.470 155.817 117.935 C 156.378 118.191,158.346 118.400,160.190 118.400 C 165.187 118.400,164.800 117.053,164.800 134.455 C 164.800 151.887,165.061 150.799,160.886 150.802 C 159.189 150.803,157.125 150.992,156.300 151.221 L 154.800 151.638 154.800 172.019 C 154.800 193.879,154.811 194.000,156.824 194.000 C 157.057 194.000,157.161 194.139,157.057 194.308 C 156.822 194.688,172.085 194.642,172.702 194.261 C 172.945 194.110,173.269 194.188,173.421 194.435 C 173.854 195.134,193.483 194.574,194.216 193.841 C 194.673 193.384,194.772 188.626,194.792 166.018 L 194.816 138.747 195.908 137.725 C 196.509 137.163,196.955 136.545,196.900 136.352 C 196.845 136.158,196.972 136.000,197.182 136.000 C 197.773 136.000,199.506 134.126,199.815 133.152 C 199.968 132.671,201.326 131.020,202.834 129.481 C 204.342 127.943,205.480 126.529,205.362 126.339 C 205.117 125.943,206.405 124.169,206.984 124.103 C 207.196 124.079,207.498 123.731,207.656 123.330 C 207.906 122.695,207.947 122.718,207.972 123.500 C 207.987 123.995,208.374 124.774,208.831 125.231 C 209.292 125.692,209.558 126.332,209.429 126.668 C 209.280 127.057,209.483 127.349,209.998 127.484 C 210.439 127.599,210.800 128.005,210.800 128.385 C 210.800 128.766,211.157 129.510,211.593 130.039 C 212.029 130.567,212.539 131.186,212.727 131.413 C 212.916 131.641,213.189 132.303,213.336 132.885 C 213.482 133.468,213.826 134.184,214.101 134.478 C 214.375 134.772,214.955 135.705,215.388 136.552 C 215.821 137.399,216.406 138.181,216.688 138.289 C 216.970 138.397,217.200 138.812,217.200 139.210 C 217.200 140.362,217.639 141.200,218.243 141.200 C 218.597 141.200,218.800 141.643,218.800 142.413 C 218.800 143.121,219.049 143.721,219.400 143.855 C 219.730 143.982,220.000 144.399,220.000 144.782 C 220.000 145.164,220.360 145.893,220.800 146.400 C 221.240 146.907,221.600 147.525,221.600 147.772 C 221.600 148.020,221.915 148.520,222.300 148.883 C 223.634 150.143,224.000 150.771,224.000 151.807 C 224.000 152.379,224.161 152.748,224.358 152.626 C 224.760 152.377,225.313 153.421,225.365 154.528 C 225.384 154.929,225.715 155.433,226.100 155.648 C 226.485 155.863,226.800 156.365,226.800 156.761 C 226.800 157.158,227.259 157.979,227.820 158.584 C 228.381 159.189,229.121 160.386,229.464 161.242 C 229.806 162.099,230.247 162.800,230.443 162.800 C 230.640 162.800,230.800 163.231,230.800 163.757 C 230.800 164.284,231.070 164.818,231.400 164.945 C 231.730 165.071,232.000 165.513,232.000 165.926 C 232.000 166.339,232.360 167.093,232.800 167.600 C 233.240 168.107,233.600 168.675,233.600 168.861 C 233.600 169.048,233.870 169.200,234.200 169.200 C 234.601 169.200,234.800 169.601,234.800 170.413 C 234.800 171.121,235.049 171.721,235.400 171.855 C 235.730 171.982,236.000 172.413,236.000 172.814 C 236.000 173.215,236.240 173.782,236.533 174.075 C 236.825 174.368,237.189 175.101,237.340 175.704 C 237.491 176.307,237.776 176.800,237.972 176.800 C 238.168 176.800,238.739 177.655,239.241 178.700 C 239.743 179.745,240.397 180.783,240.695 181.008 C 240.992 181.232,241.267 181.832,241.306 182.341 C 241.344 182.849,241.696 183.437,242.088 183.647 C 242.479 183.857,242.800 184.369,242.800 184.786 C 242.800 185.202,243.070 185.813,243.400 186.143 C 243.730 186.473,244.000 187.107,244.000 187.552 C 244.000 187.997,244.630 188.973,245.400 189.721 C 246.170 190.469,246.800 191.448,246.800 191.898 C 246.800 192.727,247.766 193.398,248.730 193.239 C 249.021 193.191,249.471 193.318,249.730 193.522 C 250.204 193.896,251.103 193.860,253.516 193.371 C 254.489 193.174,255.035 193.289,255.616 193.814 C 256.148 194.296,256.400 194.360,256.400 194.013 C 256.400 193.626,256.533 193.612,256.947 193.956 C 257.363 194.301,257.614 194.265,257.996 193.805 C 258.790 192.849,286.608 192.902,287.669 193.862 C 288.225 194.366,288.400 194.394,288.400 193.982 C 288.400 193.564,288.508 193.548,288.875 193.915 C 289.241 194.281,289.518 194.236,290.087 193.721 C 290.765 193.108,290.877 193.106,291.467 193.696 C 292.057 194.286,292.201 194.251,293.226 193.269 C 294.630 191.924,295.011 189.600,293.827 189.600 C 293.512 189.600,293.140 189.240,293.000 188.800 C 292.860 188.360,292.578 188.000,292.373 188.000 C 292.168 188.000,292.000 187.558,292.000 187.017 C 292.000 186.373,291.517 185.649,290.600 184.917 C 289.610 184.127,289.200 183.478,289.200 182.700 C 289.200 181.989,288.988 181.600,288.600 181.600 C 288.218 181.600,288.000 181.216,288.000 180.543 C 288.000 179.434,285.915 177.040,285.377 177.531 C 285.215 177.679,285.179 177.405,285.298 176.923 C 285.433 176.370,285.248 175.806,284.796 175.397 C 284.402 175.040,283.962 174.124,283.819 173.363 C 283.671 172.574,283.385 172.086,283.153 172.229 C 282.929 172.367,282.647 172.102,282.526 171.640 C 282.406 171.178,282.037 170.800,281.707 170.800 C 281.298 170.800,281.175 170.538,281.322 169.976 C 281.454 169.472,281.317 169.066,280.971 168.934 C 280.660 168.814,280.504 168.555,280.626 168.358 C 280.748 168.161,280.657 168.000,280.424 168.000 C 280.191 168.000,280.000 167.558,280.000 167.017 C 280.000 166.373,279.517 165.649,278.600 164.917 C 277.610 164.127,277.200 163.478,277.200 162.700 C 277.200 161.989,276.988 161.600,276.600 161.600 C 276.218 161.600,276.000 161.216,276.000 160.543 C 276.000 159.434,273.915 157.040,273.377 157.531 C 273.215 157.679,273.179 157.405,273.298 156.923 C 273.433 156.370,273.248 155.806,272.796 155.397 C 272.402 155.040,271.962 154.124,271.819 153.363 C 271.671 152.574,271.385 152.086,271.153 152.229 C 270.929 152.367,270.647 152.102,270.526 151.640 C 270.406 151.178,270.046 150.800,269.728 150.800 C 269.394 150.800,269.201 150.498,269.271 150.085 C 269.337 149.692,268.989 148.858,268.496 148.231 C 268.003 147.605,267.600 146.799,267.600 146.442 C 267.600 146.084,267.060 145.345,266.400 144.800 C 265.596 144.136,265.200 143.445,265.200 142.704 C 265.200 141.989,264.988 141.600,264.600 141.600 C 264.087 141.600,263.943 141.254,264.014 140.186 C 264.022 140.068,263.797 139.730,263.514 139.435 C 263.231 139.140,262.742 138.526,262.427 138.070 C 262.112 137.615,261.692 137.343,261.495 137.465 C 261.297 137.587,261.193 137.344,261.264 136.924 C 261.335 136.503,260.822 135.438,260.124 134.556 C 259.425 133.674,258.732 132.468,258.583 131.876 C 258.435 131.284,258.042 130.800,257.710 130.800 C 257.317 130.800,257.175 130.539,257.303 130.051 C 257.428 129.570,257.014 128.772,256.149 127.828 C 255.407 127.018,254.800 126.103,254.800 125.793 C 254.800 125.484,254.441 124.896,254.001 124.487 C 253.562 124.078,253.163 123.261,253.114 122.672 C 253.065 122.082,252.795 121.600,252.513 121.600 C 252.231 121.600,252.000 121.330,252.000 121.000 C 252.000 120.670,251.823 120.400,251.608 120.400 C 251.392 120.400,251.091 119.907,250.940 119.304 C 250.623 118.038,249.826 117.110,249.409 117.519 C 249.251 117.674,249.183 117.431,249.258 116.980 C 249.337 116.504,248.860 115.486,248.124 114.556 C 247.425 113.674,246.732 112.468,246.583 111.876 C 246.435 111.284,246.042 110.800,245.710 110.800 C 245.317 110.800,245.175 110.539,245.303 110.051 C 245.428 109.570,245.014 108.772,244.149 107.828 C 243.407 107.018,242.800 106.108,242.800 105.806 C 242.800 105.504,242.554 105.011,242.253 104.710 C 241.952 104.409,241.566 103.721,241.395 103.181 C 241.225 102.642,240.751 101.965,240.343 101.677 C 239.934 101.390,239.600 100.884,239.600 100.554 C 239.600 100.223,239.420 100.064,239.200 100.200 C 238.967 100.344,238.800 99.937,238.800 99.224 C 238.800 98.492,238.593 98.000,238.285 98.000 C 237.547 98.000,237.480 95.778,238.196 95.061 C 238.528 94.729,238.800 94.233,238.800 93.959 C 238.800 93.685,239.700 92.607,240.800 91.563 C 242.216 90.219,242.800 89.357,242.800 88.609 C 242.800 88.028,242.960 87.651,243.155 87.772 C 243.350 87.892,243.607 87.615,243.728 87.155 C 243.848 86.696,244.117 86.425,244.325 86.554 C 244.534 86.683,245.131 86.162,245.652 85.397 C 246.174 84.632,246.713 84.004,246.851 84.003 C 246.990 84.001,247.342 83.423,247.634 82.718 C 247.926 82.012,249.028 80.554,250.083 79.477 C 251.137 78.400,252.000 77.252,252.000 76.925 C 252.000 76.598,252.945 75.365,254.100 74.185 C 256.843 71.383,257.119 71.032,257.272 70.164 C 257.407 69.394,258.605 67.979,259.080 68.030 C 259.234 68.046,259.503 67.674,259.677 67.204 C 259.851 66.734,260.156 66.449,260.355 66.572 C 260.765 66.825,261.370 65.668,261.241 64.878 C 261.194 64.592,262.065 63.502,263.178 62.458 C 264.290 61.414,265.200 60.265,265.200 59.906 C 265.200 59.547,266.100 58.329,267.200 57.200 C 268.300 56.071,269.200 55.000,269.200 54.820 C 269.200 54.640,269.560 54.399,270.000 54.284 C 270.587 54.131,270.800 53.738,270.800 52.814 C 270.800 52.120,270.960 51.651,271.155 51.772 C 271.350 51.892,271.607 51.615,271.728 51.155 C 271.849 50.692,272.138 50.438,272.376 50.585 C 272.612 50.731,272.926 50.538,273.072 50.156 C 273.219 49.774,273.668 49.132,274.069 48.731 C 274.471 48.329,274.800 47.741,274.800 47.425 C 274.800 47.109,275.970 45.651,277.400 44.185 C 278.830 42.719,280.000 41.246,280.000 40.910 C 280.000 40.575,280.900 39.428,282.000 38.362 C 283.386 37.019,284.000 36.107,284.000 35.389 C 284.000 34.819,284.158 34.450,284.350 34.569 C 284.543 34.689,285.196 34.072,285.800 33.200 C 286.404 32.328,287.057 31.711,287.250 31.831 C 287.442 31.950,287.600 31.767,287.600 31.424 C 287.600 31.081,287.783 30.800,288.006 30.800 C 288.230 30.800,288.725 30.125,289.106 29.300 C 289.488 28.475,290.025 27.656,290.300 27.480 C 291.097 26.970,290.911 24.888,290.026 24.414 C 289.520 24.143,281.776 24.000,267.650 24.000 C 254.523 24.000,245.956 23.852,245.814 23.622 C 245.044 22.376,240.000 25.367,240.000 27.070 C 240.000 27.581,239.814 28.000,239.587 28.000 C 239.361 28.000,239.059 28.301,238.918 28.669 C 238.777 29.038,238.332 29.668,237.931 30.069 C 237.529 30.471,237.200 31.076,237.200 31.413 C 237.200 31.751,236.660 32.555,236.000 33.200 C 235.340 33.845,234.800 34.694,234.800 35.087 C 234.800 35.479,234.170 36.303,233.400 36.917 C 232.483 37.649,232.000 38.373,232.000 39.017 C 232.000 39.558,231.814 40.000,231.587 40.000 C 231.361 40.000,231.056 40.311,230.910 40.691 C 230.764 41.071,230.052 41.974,229.329 42.698 C 228.605 43.421,228.032 44.112,228.055 44.233 C 228.159 44.773,226.567 47.200,226.109 47.200 C 225.650 47.200,225.430 47.706,225.549 48.490 C 225.574 48.649,224.965 49.408,224.197 50.177 C 223.429 50.945,222.800 51.939,222.800 52.387 C 222.800 53.261,221.756 54.501,220.669 54.918 C 220.291 55.063,220.000 55.609,220.000 56.174 C 220.000 56.783,219.453 57.721,218.600 58.573 C 217.830 59.343,217.200 60.209,217.200 60.498 C 217.200 60.786,216.660 61.613,216.000 62.336 C 215.340 63.058,214.800 63.998,214.800 64.425 C 214.800 65.266,213.739 66.508,212.669 66.918 C 212.301 67.059,212.000 67.505,212.000 67.908 C 212.000 68.815,211.108 70.793,210.696 70.797 C 210.126 70.803,208.200 72.998,208.062 73.800 C 207.986 74.240,207.671 74.744,207.362 74.920 C 207.053 75.096,206.800 75.501,206.800 75.820 C 206.800 76.139,206.519 76.400,206.175 76.400 C 205.783 76.400,205.596 76.684,205.675 77.160 C 205.744 77.579,205.350 78.372,204.800 78.923 C 203.402 80.323,203.020 80.885,202.868 81.763 C 202.796 82.182,202.211 83.051,201.568 83.693 C 200.926 84.336,200.400 85.277,200.400 85.784 C 200.400 86.370,200.108 86.783,199.600 86.916 C 199.059 87.057,198.800 87.462,198.800 88.163 C 198.800 89.232,197.845 90.467,196.669 90.918 C 196.301 91.059,195.994 91.586,195.987 92.087 C 195.980 92.589,195.711 93.348,195.389 93.773 C 194.874 94.454,194.792 90.366,194.702 59.583 L 194.600 24.619 193.600 24.345 C 190.944 23.617,189.200 23.344,189.200 23.656 C 189.200 24.102,162.114 24.108,161.838 23.662 C 161.576 23.237,158.549 23.214,158.118 23.633 M311.646 167.819 C 311.121 168.373,310.761 168.889,310.846 168.967 C 310.931 169.045,311.506 168.589,312.125 167.954 C 312.744 167.319,313.104 166.803,312.925 166.807 C 312.746 166.811,312.171 167.266,311.646 167.819 M279.646 207.819 C 279.121 208.373,278.761 208.889,278.846 208.967 C 278.931 209.045,279.506 208.589,280.125 207.954 C 280.744 207.319,281.104 206.803,280.925 206.807 C 280.746 206.811,280.171 207.266,279.646 207.819 M259.646 227.819 C 259.121 228.373,258.761 228.889,258.846 228.967 C 258.931 229.045,259.506 228.589,260.125 227.954 C 260.744 227.319,261.104 226.803,260.925 226.807 C 260.746 226.811,260.171 227.266,259.646 227.819 M255.646 231.819 C 255.121 232.373,254.761 232.889,254.846 232.967 C 254.931 233.045,255.506 232.589,256.125 231.954 C 256.744 231.319,257.104 230.803,256.925 230.807 C 256.746 230.811,256.171 231.266,255.646 231.819 M251.646 235.819 C 251.121 236.373,250.761 236.889,250.846 236.967 C 250.931 237.045,251.506 236.589,252.125 235.954 C 252.744 235.319,253.104 234.803,252.925 234.807 C 252.746 234.811,252.171 235.266,251.646 235.819 M150.179 251.166 C 150.303 251.367,150.179 251.607,149.902 251.699 C 149.213 251.929,148.949 299.584,149.631 300.857 C 149.944 301.442,149.948 301.615,149.644 301.427 C 149.373 301.260,149.299 301.392,149.447 301.779 C 149.587 302.142,150.166 302.400,150.843 302.400 C 151.479 302.400,152.000 302.610,152.000 302.867 C 152.000 303.560,152.444 302.988,152.566 302.137 C 152.682 301.328,154.800 300.817,154.800 301.597 C 154.800 301.845,154.992 301.929,155.227 301.784 C 155.461 301.639,155.555 301.421,155.434 301.301 C 155.140 301.007,156.789 299.600,157.428 299.600 C 157.706 299.600,157.993 299.448,158.067 299.262 C 158.140 299.076,158.710 298.799,159.334 298.646 C 160.162 298.443,160.388 298.496,160.172 298.846 C 159.985 299.148,160.047 299.218,160.338 299.038 C 160.592 298.881,160.800 298.500,160.800 298.192 C 160.800 297.876,161.499 297.443,162.400 297.200 C 163.280 296.963,164.000 296.596,164.000 296.385 C 164.000 296.173,164.270 296.000,164.600 296.000 C 164.930 296.000,165.575 295.625,166.033 295.167 C 166.492 294.708,166.972 294.439,167.101 294.568 C 167.230 294.696,167.628 294.537,167.985 294.214 C 168.343 293.890,169.186 293.583,169.860 293.532 C 170.667 293.470,171.070 293.233,171.042 292.835 C 171.019 292.502,171.360 292.159,171.800 292.071 C 172.240 291.983,172.737 291.673,172.904 291.383 C 173.272 290.745,173.508 252.400,173.144 252.400 C 173.004 252.400,172.914 252.085,172.944 251.700 C 173.009 250.884,151.700 250.592,151.106 251.400 C 150.924 251.648,150.810 251.610,150.806 251.300 C 150.803 251.025,150.609 250.800,150.376 250.800 C 150.143 250.800,150.055 250.965,150.179 251.166 M227.658 255.807 C 226.435 257.097,226.844 257.092,228.238 255.800 C 228.831 255.250,229.156 254.803,228.958 254.807 C 228.761 254.811,228.176 255.261,227.658 255.807 M200.200 275.200 C 200.058 275.646,199.794 275.920,199.613 275.808 C 199.432 275.696,199.171 275.899,199.032 276.260 C 198.643 277.275,198.905 277.206,200.101 275.979 C 200.707 275.357,201.035 274.745,200.830 274.619 C 200.625 274.492,200.342 274.754,200.200 275.200 M94.647 287.313 C 94.067 288.461,93.865 289.051,94.197 288.624 C 94.737 287.928,94.800 289.556,94.800 304.281 C 94.800 319.558,94.849 320.734,95.500 320.996 C 96.469 321.386,100.001 321.467,100.000 321.100 C 100.000 320.935,100.162 320.845,100.360 320.900 C 100.558 320.955,100.693 320.820,100.660 320.600 C 100.627 320.380,101.851 320.093,103.379 319.962 C 104.925 319.829,106.227 319.518,106.313 319.262 C 106.403 318.991,107.337 318.800,108.571 318.800 C 110.188 318.800,110.849 318.609,111.421 317.977 C 111.943 317.400,112.560 317.187,113.482 317.266 C 114.214 317.329,115.109 317.118,115.499 316.790 C 115.884 316.465,116.740 316.016,117.400 315.790 L 118.600 315.381 118.705 300.867 C 118.792 288.826,118.714 286.257,118.248 285.790 C 117.792 285.334,115.604 285.228,106.693 285.227 L 95.700 285.225 94.647 287.313 M140.576 362.180 C 139.827 362.740,139.832 362.752,140.706 362.532 C 141.205 362.406,141.710 362.145,141.830 361.952 C 142.168 361.404,141.436 361.538,140.576 362.180 " stroke="none" fill="#8c8c8c" fill-rule="evenodd"></path><path id="path1" d="M321.861 48.585 C 321.661 49.106,320.551 49.200,314.616 49.200 C 308.040 49.200,307.576 49.249,307.107 50.000 C 306.702 50.648,306.174 50.800,304.327 50.800 C 301.971 50.800,301.444 51.126,301.413 52.600 C 301.376 54.393,301.826 54.674,304.876 54.763 C 306.747 54.817,308.018 55.054,308.426 55.424 C 308.777 55.741,309.814 56.000,310.731 56.000 C 311.885 56.000,312.400 56.171,312.400 56.553 C 312.400 57.121,313.567 57.585,315.020 57.595 C 315.471 57.598,316.054 57.814,316.316 58.076 C 316.578 58.338,317.064 58.592,317.397 58.641 C 318.423 58.791,321.600 60.450,321.600 60.836 C 321.600 61.036,321.827 61.200,322.104 61.200 C 322.381 61.200,322.832 61.560,323.107 62.000 C 323.382 62.440,323.957 62.800,324.386 62.800 C 324.841 62.800,326.779 64.426,329.037 66.700 C 331.166 68.845,333.033 70.565,333.185 70.523 C 333.338 70.480,333.431 70.840,333.391 71.323 C 333.291 72.544,333.588 73.200,334.243 73.200 C 334.549 73.200,334.814 73.335,334.831 73.500 C 334.952 74.686,335.217 75.406,335.578 75.526 C 335.810 75.603,336.000 75.862,336.000 76.102 C 336.000 76.341,336.252 76.821,336.560 77.169 C 336.868 77.516,337.222 78.520,337.345 79.400 C 337.469 80.280,337.577 81.045,337.585 81.100 C 337.593 81.155,337.870 81.200,338.200 81.200 C 338.665 81.200,338.800 81.728,338.800 83.551 C 338.800 85.153,338.991 86.061,339.400 86.400 C 339.904 86.818,340.000 88.487,340.000 96.806 C 340.000 105.244,339.911 106.749,339.400 106.945 C 338.942 107.120,338.800 107.869,338.800 110.099 C 338.800 112.527,338.665 113.138,338.000 113.707 C 337.377 114.240,337.200 114.887,337.200 116.625 C 337.200 118.076,336.990 119.067,336.600 119.457 C 336.270 119.787,336.000 120.655,336.000 121.386 C 336.000 122.198,335.767 122.804,335.400 122.945 C 334.996 123.100,334.800 123.735,334.800 124.891 C 334.800 126.145,334.595 126.736,334.038 127.083 C 333.526 127.403,333.304 127.949,333.360 128.753 C 333.419 129.612,333.239 130.001,332.721 130.137 C 332.201 130.273,332.000 130.712,332.000 131.714 C 332.000 132.477,331.730 133.326,331.400 133.600 C 331.070 133.874,330.800 134.436,330.800 134.849 C 330.800 135.262,330.440 135.960,330.000 136.400 C 329.560 136.840,329.200 137.573,329.200 138.029 C 329.200 138.484,328.930 139.127,328.600 139.457 C 328.270 139.787,328.000 140.571,328.000 141.200 C 328.000 141.957,327.527 142.845,326.600 143.827 C 325.815 144.660,325.200 145.726,325.200 146.256 C 325.200 146.775,325.023 147.200,324.808 147.200 C 324.592 147.200,324.304 147.643,324.168 148.184 C 324.033 148.725,323.669 149.377,323.361 149.633 C 323.052 149.889,322.800 150.439,322.800 150.856 C 322.800 151.273,322.170 152.226,321.400 152.974 C 320.512 153.836,320.000 154.711,320.000 155.367 C 320.000 155.935,319.823 156.400,319.608 156.400 C 319.392 156.400,319.095 156.879,318.948 157.465 C 318.801 158.050,318.078 159.059,317.340 159.706 C 316.603 160.353,316.000 161.211,316.000 161.613 C 316.000 162.015,315.370 163.011,314.600 163.827 C 313.830 164.644,313.200 165.661,313.200 166.087 C 313.200 166.513,312.660 167.402,312.000 168.062 C 311.340 168.722,310.800 169.523,310.800 169.843 C 310.800 170.163,310.170 170.978,309.400 171.654 C 308.531 172.416,308.000 173.247,308.000 173.841 C 308.000 174.369,307.820 174.800,307.600 174.800 C 307.380 174.800,307.200 175.070,307.200 175.400 C 307.200 175.730,306.991 176.000,306.736 176.000 C 305.998 176.000,304.000 178.461,303.999 179.372 C 303.998 179.847,303.486 180.541,302.797 181.000 C 302.136 181.440,301.493 182.118,301.369 182.506 C 301.244 182.894,300.990 183.117,300.804 183.002 C 300.617 182.887,300.349 183.323,300.206 183.972 C 300.062 184.629,299.074 185.997,297.974 187.065 C 296.748 188.254,296.000 189.324,296.000 189.890 C 296.000 190.703,295.609 190.991,294.700 190.847 C 294.535 190.821,294.400 191.092,294.400 191.450 C 294.400 191.807,293.040 193.456,291.377 195.113 C 289.649 196.835,288.264 198.578,288.144 199.182 C 288.027 199.763,287.408 200.590,286.767 201.020 C 286.127 201.449,285.602 201.921,285.601 202.068 C 285.601 202.216,284.885 203.026,284.012 203.868 C 283.139 204.711,282.221 205.607,281.972 205.860 C 280.862 206.989,278.286 209.551,277.950 209.860 C 277.096 210.645,276.007 212.147,275.785 212.848 C 275.654 213.261,275.194 213.600,274.763 213.600 C 274.282 213.600,273.823 214.013,273.573 214.670 C 273.122 215.856,270.380 219.052,269.936 218.909 C 269.781 218.859,268.933 219.723,268.052 220.829 C 267.172 221.935,266.359 222.786,266.248 222.720 C 266.136 222.654,265.405 223.219,264.625 223.976 C 263.844 224.733,262.892 225.398,262.510 225.454 C 262.127 225.511,261.744 225.769,261.657 226.028 C 261.571 226.288,260.785 227.180,259.910 228.010 C 259.036 228.841,258.140 229.700,257.920 229.920 C 257.700 230.140,256.800 231.040,255.920 231.920 C 248.605 239.235,249.091 238.800,248.240 238.800 C 247.521 238.800,243.200 242.922,243.200 243.609 C 243.200 243.824,242.924 244.000,242.587 244.000 C 242.251 244.000,241.874 244.263,241.750 244.585 C 241.627 244.906,241.186 245.277,240.771 245.409 C 240.356 245.541,240.058 245.863,240.108 246.124 C 240.159 246.386,239.720 246.656,239.133 246.723 C 238.459 246.801,237.353 247.611,236.133 248.920 C 235.070 250.060,234.110 251.000,234.000 251.007 C 233.527 251.039,230.647 253.085,229.881 253.932 C 227.297 256.790,226.478 257.407,225.486 257.243 C 225.054 257.171,223.200 259.068,223.200 259.582 C 223.200 259.812,222.924 260.000,222.587 260.000 C 222.251 260.000,221.871 260.270,221.745 260.600 C 221.618 260.930,221.129 261.202,220.657 261.204 C 220.186 261.207,219.190 261.837,218.444 262.604 C 217.698 263.372,216.933 264.000,216.744 264.000 C 215.990 264.000,214.876 264.738,213.851 265.919 C 212.566 267.399,211.780 268.000,211.130 268.000 C 210.734 268.000,209.506 268.900,208.400 270.000 C 207.294 271.100,206.050 272.000,205.636 272.000 C 205.222 272.000,204.330 272.630,203.654 273.400 C 202.978 274.170,202.163 274.800,201.843 274.800 C 201.523 274.800,200.711 275.351,200.037 276.024 C 199.364 276.698,198.405 277.278,197.906 277.313 C 196.961 277.381,195.200 278.857,195.200 279.582 C 195.200 279.812,194.719 280.000,194.131 280.000 C 193.544 280.000,192.758 280.276,192.386 280.612 C 192.014 280.949,191.281 281.307,190.756 281.408 C 190.232 281.509,189.739 281.784,189.661 282.018 C 189.404 282.789,187.863 284.000,187.141 284.000 C 186.751 284.000,185.704 284.714,184.814 285.587 C 183.924 286.459,182.955 287.081,182.662 286.968 C 182.368 286.856,181.897 287.042,181.615 287.382 C 181.333 287.722,180.867 288.000,180.580 288.000 C 180.292 288.000,179.776 288.281,179.433 288.625 C 179.089 288.968,178.401 289.276,177.904 289.309 C 177.407 289.342,176.418 289.961,175.707 290.685 C 174.996 291.408,174.110 292.000,173.739 292.000 C 173.367 292.000,172.758 292.276,172.386 292.612 C 172.014 292.949,171.304 293.303,170.809 293.398 C 170.314 293.494,169.686 293.876,169.415 294.248 C 169.054 294.741,168.588 294.858,167.696 294.679 C 166.786 294.497,166.409 294.599,166.227 295.074 C 166.021 295.610,166.081 295.631,166.600 295.200 C 167.122 294.767,167.178 294.791,166.962 295.355 C 166.800 295.776,166.441 295.940,165.993 295.798 C 165.521 295.648,164.996 295.933,164.440 296.640 C 163.978 297.227,163.600 297.529,163.600 297.309 C 163.600 297.090,163.133 297.000,162.563 297.109 C 161.904 297.235,161.701 297.415,162.006 297.604 C 162.546 297.937,162.464 298.004,159.707 299.470 C 158.053 300.349,157.497 300.263,158.480 299.280 C 158.853 298.907,158.853 298.800,158.480 298.800 C 158.216 298.800,158.000 298.980,158.000 299.200 C 158.000 299.420,157.685 299.603,157.300 299.606 C 156.705 299.611,156.690 299.669,157.198 299.990 C 157.711 300.315,157.682 300.451,156.999 300.951 C 156.384 301.401,156.071 301.428,155.624 301.067 C 155.182 300.710,155.113 300.711,155.330 301.072 C 155.486 301.332,155.430 301.658,155.207 301.796 C 154.983 301.934,154.800 301.857,154.800 301.624 C 154.800 300.982,152.967 301.117,152.400 301.800 C 152.126 302.130,151.519 302.421,151.051 302.446 C 150.375 302.483,150.344 302.530,150.900 302.676 C 152.233 303.024,151.347 304.000,149.699 304.000 C 149.349 304.000,148.758 304.276,148.386 304.612 C 148.014 304.949,147.289 305.306,146.775 305.405 C 146.261 305.504,145.687 305.858,145.500 306.192 C 145.313 306.527,144.719 306.800,144.180 306.800 C 143.576 306.800,143.200 307.030,143.200 307.400 C 143.200 307.832,142.759 308.000,141.629 308.000 C 140.764 308.000,139.788 308.269,139.459 308.598 C 138.952 309.106,137.998 309.442,136.700 309.570 C 136.535 309.587,136.400 309.870,136.400 310.200 C 136.400 310.594,136.005 310.800,135.249 310.800 C 134.616 310.800,133.874 311.070,133.600 311.400 C 133.326 311.730,132.469 312.000,131.695 312.000 C 130.858 312.000,130.096 312.263,129.813 312.650 C 129.551 313.007,128.853 313.300,128.262 313.300 C 127.670 313.300,127.086 313.460,126.965 313.657 C 126.844 313.853,126.577 313.909,126.372 313.783 C 126.168 313.656,126.000 313.833,126.000 314.176 C 126.000 314.623,125.600 314.800,124.587 314.800 C 123.701 314.800,123.089 315.023,122.945 315.400 C 122.804 315.767,122.198 316.000,121.386 316.000 C 120.655 316.000,119.769 316.288,119.418 316.639 C 118.972 317.085,118.245 317.236,117.022 317.139 C 116.057 317.062,115.280 317.090,115.297 317.200 C 115.448 318.203,114.558 318.800,112.908 318.800 C 110.744 318.800,111.148 317.646,113.349 317.540 L 114.600 317.480 113.465 317.310 C 112.783 317.208,112.051 317.392,111.632 317.771 C 111.249 318.118,110.813 318.313,110.664 318.204 C 110.515 318.096,110.575 318.221,110.797 318.483 C 111.868 319.750,111.266 320.091,108.228 319.937 C 106.593 319.855,105.467 319.918,105.725 320.077 C 106.619 320.630,105.420 321.172,103.138 321.247 C 101.467 321.302,100.753 321.511,100.357 322.060 C 99.943 322.634,99.301 322.800,97.499 322.800 C 95.802 322.800,95.113 322.962,94.945 323.400 C 94.769 323.857,94.022 324.000,91.806 324.000 C 89.709 324.000,88.759 324.167,88.400 324.600 C 88.016 325.063,86.953 325.200,83.754 325.200 C 80.040 325.200,79.555 325.284,79.107 326.000 C 78.313 327.271,56.469 327.244,55.674 325.970 C 55.208 325.224,54.837 325.154,51.997 325.270 C 49.260 325.383,48.815 325.307,48.657 324.700 C 48.509 324.130,48.023 324.000,46.037 324.000 C 44.300 324.000,43.600 323.850,43.600 323.478 C 43.600 323.148,42.986 322.920,41.929 322.858 C 40.864 322.795,40.013 322.477,39.582 321.980 C 39.210 321.551,38.542 321.200,38.096 321.200 C 37.650 321.200,37.178 320.918,37.046 320.574 C 36.913 320.230,36.489 319.999,36.103 320.060 C 35.208 320.202,33.200 318.883,33.200 318.154 C 33.200 317.849,33.020 317.578,32.800 317.550 C 32.580 317.523,32.220 317.455,32.000 317.400 C 31.780 317.345,31.446 317.278,31.259 317.250 C 30.470 317.134,22.800 309.105,22.800 308.395 C 22.800 307.973,22.440 307.435,22.000 307.200 C 21.560 306.965,21.200 306.527,21.200 306.229 C 21.200 305.930,20.956 305.592,20.657 305.477 C 20.358 305.363,20.000 304.701,19.862 304.008 C 19.721 303.305,19.430 302.858,19.205 302.997 C 18.954 303.152,18.800 302.548,18.800 301.411 C 18.800 300.148,18.613 299.503,18.200 299.345 C 17.809 299.195,17.600 298.572,17.600 297.557 C 17.600 296.533,17.326 295.726,16.800 295.200 C 16.103 294.503,16.000 293.867,16.000 290.249 C 16.000 287.047,15.863 285.984,15.400 285.600 C 15.070 285.326,14.800 284.595,14.800 283.975 C 14.800 283.355,14.617 282.734,14.393 282.596 C 14.170 282.458,14.091 282.177,14.217 281.972 C 14.344 281.768,14.302 281.585,14.124 281.567 C 13.946 281.548,13.350 281.481,12.800 281.417 C 11.368 281.250,10.800 281.878,10.800 283.629 C 10.800 284.583,10.571 285.289,10.192 285.500 C 9.858 285.687,9.504 286.261,9.405 286.775 C 9.306 287.289,8.949 288.014,8.612 288.386 C 8.276 288.758,8.000 289.737,8.000 290.560 C 8.000 291.383,7.730 292.327,7.400 292.657 C 7.037 293.020,6.800 294.000,6.800 295.140 C 6.800 296.466,6.585 297.207,6.071 297.646 C 5.548 298.094,5.316 298.924,5.248 300.586 C 5.193 301.959,4.919 303.138,4.577 303.480 C 4.196 303.861,4.000 304.915,4.000 306.580 C 4.000 308.313,3.816 309.255,3.411 309.591 C 2.528 310.323,2.528 336.721,3.411 337.060 C 3.835 337.222,4.000 337.930,4.000 339.594 C 4.000 341.621,4.650 343.217,5.237 342.629 C 5.327 342.539,5.373 343.189,5.339 344.072 C 5.298 345.178,5.516 345.916,6.039 346.439 C 6.458 346.858,6.800 347.727,6.800 348.371 C 6.800 349.016,7.070 349.813,7.400 350.143 C 7.730 350.473,8.000 351.116,8.000 351.571 C 8.000 352.027,8.141 352.400,8.314 352.400 C 8.486 352.400,8.948 352.943,9.341 353.607 C 9.733 354.271,10.222 354.710,10.427 354.583 C 10.796 354.356,10.960 354.909,10.825 355.921 C 10.729 356.639,20.947 366.800,21.766 366.800 C 22.684 366.800,24.400 367.982,24.400 368.614 C 24.400 368.901,24.928 369.252,25.572 369.394 C 26.217 369.536,26.959 369.910,27.221 370.226 C 27.483 370.542,28.107 370.800,28.606 370.800 C 29.106 370.800,29.618 371.070,29.745 371.400 C 29.871 371.730,30.366 372.000,30.843 372.000 C 31.321 372.000,31.918 372.282,32.170 372.627 C 32.422 372.971,33.384 373.354,34.308 373.478 C 35.232 373.602,36.193 373.950,36.443 374.252 C 36.693 374.553,37.609 374.800,38.478 374.800 C 39.346 374.800,40.298 375.041,40.593 375.336 C 40.912 375.655,42.205 375.906,43.786 375.958 C 45.807 376.023,46.630 376.230,47.222 376.822 C 47.923 377.523,48.589 377.600,53.951 377.600 C 58.753 377.600,59.998 377.716,60.400 378.200 C 61.110 379.056,70.871 379.078,71.579 378.225 C 71.952 377.776,73.575 377.624,79.057 377.525 C 85.229 377.415,86.104 377.317,86.449 376.700 C 86.781 376.105,87.448 376.000,90.888 376.000 C 93.829 376.000,95.110 375.844,95.569 375.430 C 95.960 375.077,97.266 374.822,98.999 374.760 C 100.664 374.700,102.012 374.445,102.327 374.130 C 102.624 373.833,103.726 373.600,104.829 373.600 C 106.267 373.600,107.016 373.384,107.600 372.800 C 108.204 372.196,108.933 372.000,110.580 372.000 C 112.065 372.000,112.863 371.816,113.084 371.422 C 113.271 371.088,114.133 370.801,115.129 370.742 C 116.076 370.686,116.942 370.494,117.053 370.314 C 117.164 370.134,117.423 370.091,117.628 370.217 C 117.832 370.344,118.000 370.279,118.000 370.074 C 118.000 369.870,118.924 369.613,120.054 369.504 C 121.383 369.377,122.238 369.076,122.474 368.654 C 122.707 368.236,123.364 368.000,124.288 368.000 C 125.085 368.000,126.026 367.738,126.380 367.419 C 126.733 367.099,127.687 366.792,128.499 366.738 C 129.312 366.683,130.057 366.430,130.154 366.175 C 130.252 365.920,131.185 365.616,132.226 365.498 C 133.374 365.369,134.262 365.032,134.480 364.642 C 134.707 364.237,135.374 364.000,136.288 364.000 C 137.085 364.000,138.046 363.720,138.424 363.379 C 138.801 363.037,139.478 362.729,139.928 362.695 C 140.377 362.662,140.668 362.510,140.575 362.359 C 140.341 361.982,141.439 361.600,142.757 361.600 C 143.358 361.600,144.204 361.269,144.638 360.865 C 145.072 360.461,145.916 360.007,146.513 359.857 C 147.111 359.707,147.600 359.408,147.600 359.192 C 147.600 358.977,148.388 358.800,149.351 358.800 C 150.365 358.800,151.298 358.564,151.567 358.239 C 151.823 357.931,152.480 357.566,153.027 357.429 C 153.573 357.292,154.343 356.857,154.738 356.462 C 155.187 356.013,155.942 355.778,156.755 355.834 C 157.569 355.890,158.135 355.714,158.270 355.362 C 158.389 355.053,158.903 354.800,159.414 354.800 C 159.925 354.800,160.604 354.539,160.923 354.220 C 161.242 353.901,161.975 353.521,162.552 353.376 C 163.128 353.232,163.600 352.863,163.600 352.557 C 163.600 352.210,164.034 352.000,164.751 352.000 C 165.384 352.000,166.126 351.730,166.400 351.400 C 166.674 351.070,167.223 350.800,167.620 350.800 C 168.018 350.800,168.582 350.560,168.875 350.267 C 169.168 349.975,169.901 349.611,170.504 349.460 C 171.107 349.309,171.600 349.014,171.600 348.805 C 171.600 348.596,171.870 348.529,172.200 348.655 C 172.530 348.782,172.800 348.709,172.800 348.493 C 172.800 348.277,173.352 347.990,174.027 347.855 C 174.729 347.714,175.143 347.432,174.997 347.195 C 174.856 346.967,174.889 346.806,175.070 346.837 C 176.218 347.037,177.307 346.630,178.918 345.400 C 179.927 344.630,181.011 344.000,181.327 344.000 C 181.643 344.000,182.126 343.730,182.400 343.400 C 182.674 343.070,183.223 342.800,183.620 342.800 C 184.018 342.800,184.604 342.539,184.923 342.220 C 185.242 341.901,185.975 341.521,186.552 341.376 C 187.128 341.232,187.600 340.863,187.600 340.557 C 187.600 340.210,188.034 340.000,188.751 340.000 C 189.384 340.000,190.108 339.752,190.360 339.448 C 190.612 339.145,191.354 338.789,192.009 338.658 C 192.665 338.527,193.200 338.163,193.200 337.847 C 193.200 337.478,193.475 337.347,193.974 337.477 C 194.498 337.614,195.210 337.216,196.187 336.240 C 196.979 335.448,197.959 334.800,198.364 334.800 C 198.770 334.800,199.317 334.542,199.579 334.226 C 199.841 333.910,200.568 333.539,201.194 333.401 C 201.821 333.264,202.433 332.892,202.554 332.576 C 202.676 332.259,203.101 332.000,203.499 332.000 C 203.897 332.000,204.476 331.650,204.785 331.221 C 205.093 330.793,205.474 330.522,205.631 330.619 C 205.788 330.716,206.019 330.526,206.146 330.198 C 206.272 329.869,206.713 329.600,207.125 329.600 C 207.538 329.600,208.202 329.240,208.600 328.800 C 208.998 328.360,209.629 328.000,210.001 328.000 C 210.597 328.000,211.097 327.678,213.066 326.024 C 213.322 325.808,213.997 325.516,214.566 325.373 C 215.135 325.230,215.600 324.863,215.600 324.557 C 215.600 324.250,215.876 324.000,216.213 324.000 C 216.549 324.000,216.929 323.730,217.055 323.400 C 217.182 323.070,217.685 322.800,218.173 322.800 C 218.699 322.800,219.537 322.229,220.228 321.400 C 220.870 320.630,221.757 319.999,222.198 319.998 C 222.639 319.997,223.567 319.465,224.259 318.816 C 224.952 318.167,225.987 317.518,226.559 317.374 C 227.132 317.231,227.600 316.863,227.600 316.557 C 227.600 316.250,227.876 316.000,228.213 316.000 C 228.549 316.000,228.929 315.730,229.055 315.400 C 229.182 315.070,229.685 314.800,230.173 314.800 C 230.699 314.800,231.537 314.229,232.228 313.400 C 232.870 312.630,233.757 311.999,234.198 311.998 C 234.639 311.997,235.567 311.465,236.259 310.816 C 236.952 310.167,237.987 309.518,238.559 309.374 C 239.132 309.231,239.600 308.863,239.600 308.557 C 239.600 308.250,239.887 308.000,240.237 308.000 C 240.588 308.000,240.964 307.661,241.072 307.246 C 241.204 306.741,241.517 306.558,242.023 306.690 C 242.548 306.827,243.403 306.266,244.832 304.844 C 245.962 303.720,247.221 302.800,247.629 302.800 C 248.037 302.800,249.232 301.913,250.285 300.828 C 251.338 299.743,252.545 298.798,252.966 298.728 C 253.806 298.588,255.600 296.990,255.600 296.382 C 255.600 296.172,255.876 296.000,256.213 296.000 C 256.549 296.000,256.929 295.730,257.055 295.400 C 257.182 295.070,257.638 294.800,258.069 294.800 C 258.500 294.800,259.854 293.814,261.079 292.609 C 262.303 291.404,263.455 290.510,263.638 290.623 C 263.821 290.737,264.337 290.463,264.785 290.015 C 265.233 289.567,265.670 289.200,265.755 289.200 C 265.840 289.200,267.074 288.030,268.497 286.600 C 269.920 285.170,271.401 284.000,271.788 284.000 C 272.489 284.000,275.600 281.021,275.600 280.351 C 275.600 280.158,275.843 280.000,276.140 280.000 C 276.437 280.000,277.094 279.460,277.600 278.800 C 278.106 278.140,278.848 277.600,279.248 277.600 C 279.649 277.600,281.810 275.813,284.051 273.628 C 286.291 271.443,288.515 269.558,288.993 269.438 C 290.193 269.136,326.800 232.469,326.800 231.568 C 326.800 231.174,328.870 228.800,331.400 226.293 C 333.930 223.787,336.000 221.436,336.000 221.070 C 336.000 220.704,336.810 219.583,337.800 218.579 C 338.790 217.575,339.600 216.605,339.600 216.423 C 339.600 216.242,339.935 216.006,340.344 215.899 C 340.752 215.792,341.217 215.188,341.375 214.557 C 341.534 213.925,342.819 212.264,344.232 210.865 C 345.644 209.467,346.800 207.988,346.800 207.580 C 346.800 207.172,347.700 205.938,348.800 204.838 C 349.900 203.738,350.800 202.470,350.800 202.019 C 350.800 201.569,350.980 201.200,351.200 201.200 C 351.420 201.200,351.600 200.930,351.600 200.600 C 351.600 200.270,351.806 200.000,352.057 200.000 C 352.728 200.000,354.581 197.905,354.720 196.990 C 354.786 196.555,355.365 195.712,356.008 195.116 C 356.651 194.520,357.287 193.595,357.421 193.060 C 357.555 192.525,358.190 191.584,358.832 190.969 C 359.475 190.354,360.000 189.515,360.000 189.106 C 360.000 188.697,360.448 187.946,360.996 187.438 C 361.544 186.930,362.260 185.876,362.586 185.094 C 362.913 184.313,363.624 183.324,364.167 182.897 C 364.710 182.470,365.263 181.688,365.396 181.159 C 365.528 180.631,366.169 179.589,366.819 178.845 C 367.468 178.101,368.000 177.246,368.000 176.946 C 368.000 176.646,368.360 176.040,368.800 175.600 C 369.240 175.160,369.600 174.517,369.600 174.171 C 369.600 173.826,369.870 173.273,370.200 172.943 C 370.530 172.613,370.803 172.041,370.808 171.671 C 370.812 171.302,371.442 170.282,372.208 169.404 C 372.973 168.527,373.600 167.595,373.600 167.333 C 373.600 167.071,373.825 166.619,374.100 166.329 C 374.375 166.038,374.661 165.440,374.736 165.000 C 374.811 164.560,375.126 163.916,375.436 163.569 C 375.746 163.221,376.000 162.603,376.000 162.194 C 376.000 161.786,376.327 161.080,376.726 160.626 C 377.125 160.172,377.789 158.990,378.201 158.000 C 378.613 157.010,379.186 155.916,379.475 155.569 C 379.764 155.221,380.000 154.568,380.000 154.117 C 380.000 153.667,380.251 153.090,380.558 152.835 C 380.865 152.580,381.238 151.722,381.387 150.928 C 381.536 150.134,381.915 149.228,382.229 148.914 C 382.543 148.600,382.800 147.636,382.800 146.771 C 382.800 145.907,382.966 145.200,383.168 145.200 C 383.371 145.200,383.658 144.648,383.806 143.973 C 383.954 143.298,384.324 142.651,384.627 142.534 C 384.930 142.418,385.283 141.665,385.411 140.861 C 385.540 140.058,385.904 138.809,386.222 138.086 C 386.540 137.364,386.800 136.351,386.800 135.835 C 386.800 135.320,387.070 134.674,387.400 134.400 C 387.763 134.099,388.000 133.223,388.000 132.184 C 388.000 131.240,388.188 130.404,388.418 130.327 C 388.648 130.251,388.866 129.786,388.903 129.294 C 388.940 128.802,389.112 128.400,389.285 128.400 C 389.458 128.400,389.600 127.757,389.600 126.971 C 389.600 126.186,389.870 125.273,390.200 124.943 C 390.637 124.506,390.800 123.440,390.800 121.020 C 390.800 118.555,390.955 117.569,391.400 117.200 C 391.912 116.775,392.000 114.669,392.000 102.800 C 392.000 90.931,391.912 88.825,391.400 88.400 C 391.002 88.070,390.800 87.174,390.800 85.738 C 390.800 84.184,390.631 83.510,390.200 83.345 C 389.870 83.218,389.600 82.689,389.600 82.169 C 389.600 81.650,389.240 80.583,388.800 79.800 C 388.360 79.017,388.000 78.043,388.000 77.637 C 388.000 77.230,387.748 76.689,387.439 76.433 C 387.131 76.177,386.764 75.512,386.625 74.956 C 386.485 74.400,385.837 73.423,385.185 72.786 C 384.533 72.148,384.000 71.322,384.000 70.950 C 384.000 70.578,383.145 69.438,382.100 68.419 C 381.055 67.399,380.016 66.032,379.792 65.382 C 379.525 64.609,379.064 64.154,378.459 64.068 C 377.951 63.995,376.425 62.795,375.068 61.401 C 373.314 59.599,372.253 58.828,371.400 58.733 C 370.704 58.656,370.242 58.390,370.300 58.100 C 370.355 57.825,370.265 57.586,370.100 57.569 C 368.962 57.453,368.238 57.178,367.633 56.630 C 367.250 56.284,366.565 56.000,366.111 56.000 C 365.657 56.000,365.187 55.742,365.066 55.427 C 364.945 55.112,364.251 54.797,363.523 54.727 C 362.727 54.651,362.240 54.401,362.300 54.100 C 362.355 53.825,362.355 53.593,362.300 53.585 C 362.245 53.577,361.480 53.469,360.600 53.345 C 359.720 53.222,358.716 52.868,358.369 52.560 C 358.021 52.252,357.121 51.994,356.369 51.987 C 355.616 51.980,354.651 51.710,354.224 51.387 C 353.723 51.009,352.510 50.800,350.812 50.800 C 348.635 50.800,348.076 50.661,347.600 50.000 C 347.079 49.278,346.556 49.199,342.212 49.187 C 338.748 49.178,337.195 49.019,336.669 48.621 C 335.535 47.761,322.190 47.729,321.861 48.585 M49.825 117.833 C 49.093 118.565,48.863 287.642,49.592 288.800 C 49.989 289.430,87.938 289.967,91.881 289.399 C 93.520 289.163,96.055 286.485,94.978 286.126 C 94.743 286.048,94.639 268.760,94.703 240.300 C 94.759 215.165,94.804 185.015,94.803 173.300 L 94.800 152.000 124.500 151.994 C 149.342 151.989,154.462 151.894,155.800 151.412 C 156.680 151.094,158.878 150.827,160.686 150.818 C 165.094 150.794,164.800 151.963,164.800 134.455 C 164.800 117.041,165.193 118.400,160.152 118.400 C 157.912 118.400,156.364 118.195,155.594 117.797 C 153.796 116.867,50.755 116.902,49.825 117.833 M253.300 193.476 C 253.685 193.576,254.315 193.576,254.700 193.476 C 255.085 193.375,254.770 193.293,254.000 193.293 C 253.230 193.293,252.915 193.375,253.300 193.476 M265.500 193.499 C 269.515 193.565,276.085 193.565,280.100 193.499 C 284.115 193.434,280.830 193.381,272.800 193.381 C 264.770 193.381,261.485 193.434,265.500 193.499 M170.400 194.400 L 167.800 194.662 170.724 194.731 C 172.587 194.775,173.558 194.655,173.400 194.400 C 173.264 194.180,173.118 194.031,173.076 194.069 C 173.034 194.107,171.830 194.256,170.400 194.400 M158.900 194.687 C 159.505 194.778,160.495 194.778,161.100 194.687 C 161.705 194.595,161.210 194.520,160.000 194.520 C 158.790 194.520,158.295 194.595,158.900 194.687 M186.915 194.696 C 188.188 194.776,190.168 194.775,191.315 194.694 C 192.462 194.614,191.420 194.549,189.000 194.550 C 186.580 194.551,185.642 194.616,186.915 194.696 M177.690 236.804 C 177.071 237.795,176.986 284.854,177.601 286.002 C 178.483 287.650,183.600 286.299,183.600 284.418 C 183.600 284.188,184.118 284.000,184.751 284.000 C 185.384 284.000,186.126 283.730,186.400 283.400 C 186.674 283.070,187.227 282.800,187.630 282.800 C 188.032 282.800,189.018 282.125,189.819 281.300 C 190.741 280.352,191.568 279.848,192.068 279.930 C 192.585 280.015,192.930 279.788,193.064 279.277 C 193.209 278.723,193.505 278.555,194.074 278.703 C 194.650 278.854,195.247 278.500,196.175 277.457 C 196.887 276.656,197.815 275.994,198.235 275.987 C 198.656 275.980,199.540 275.500,200.200 274.921 L 201.400 273.867 201.512 255.990 C 201.582 244.706,201.475 237.724,201.222 237.057 L 200.820 236.000 189.506 236.000 C 178.606 236.000,178.174 236.029,177.690 236.804 M152.700 251.089 C 153.415 251.178,154.585 251.178,155.300 251.089 C 156.015 251.001,155.430 250.928,154.000 250.928 C 152.570 250.928,151.985 251.001,152.700 251.089 M160.505 251.087 C 161.114 251.179,162.014 251.177,162.505 251.082 C 162.997 250.987,162.500 250.911,161.400 250.914 C 160.300 250.917,159.897 250.995,160.505 251.087 M173.385 271.800 C 173.385 282.140,173.436 286.427,173.500 281.328 C 173.563 276.228,173.563 267.768,173.500 262.528 C 173.437 257.287,173.385 261.460,173.385 271.800 M121.823 269.835 C 121.169 270.488,120.869 311.679,121.510 312.629 C 122.205 313.659,126.459 313.467,125.821 312.434 C 125.631 312.126,126.292 311.986,127.914 311.991 C 128.416 311.992,128.931 311.725,129.057 311.397 C 129.204 311.012,129.828 310.800,130.814 310.800 C 131.655 310.800,132.604 310.539,132.923 310.220 C 133.242 309.901,133.990 309.517,134.584 309.368 C 135.178 309.219,135.759 308.850,135.875 308.549 C 135.995 308.236,136.658 308.000,137.414 308.000 C 138.145 308.000,139.014 307.729,139.345 307.398 C 139.676 307.066,140.405 306.758,140.964 306.711 C 141.523 306.665,142.069 306.396,142.178 306.114 C 142.286 305.831,142.741 305.600,143.187 305.600 C 143.634 305.600,144.366 305.234,144.812 304.788 C 145.901 303.699,145.889 270.273,144.800 269.599 C 143.691 268.913,122.527 269.130,121.823 269.835 M154.036 302.157 C 153.488 302.816,152.000 303.274,152.000 302.782 C 152.000 302.356,153.212 301.628,153.949 301.612 C 154.373 301.603,154.393 301.727,154.036 302.157 M97.100 321.482 C 97.595 321.578,98.405 321.578,98.900 321.482 C 99.395 321.387,98.990 321.309,98.000 321.309 C 97.010 321.309,96.605 321.387,97.100 321.482 " stroke="none" fill="#5b84c4" fill-rule="evenodd"></path></g></svg>