<?xml version="1.0" standalone="no"?>
<!DOCTYPE svg PUBLIC "-//W3C//DTD SVG 20010904//EN"
 "http://www.w3.org/TR/2001/REC-SVG-20010904/DTD/svg10.dtd">
<svg version="1.0" xmlns="http://www.w3.org/2000/svg"
 width="300.000000pt" height="300.000000pt" viewBox="0 0 300.000000 300.000000"
 preserveAspectRatio="xMidYMid meet">
<metadata>
Created by potrace 1.11, written by Peter Selinger 2001-2013
</metadata>
<g transform="translate(0.000000,300.000000) scale(0.100000,-0.100000)"
fill="#000000" stroke="none">
<path d="M1170 2460 l0 -350 -395 0 -395 0 0 -635 0 -635 155 0 c85 0 155 3
156 8 0 4 2 230 4 502 2 272 4 501 4 508 1 9 55 12 236 12 l234 0 3 -157 3
-158 130 2 c72 1 133 2 138 2 4 1 7 91 7 201 l0 201 52 64 c28 36 54 65 57 65
3 0 73 -119 156 -265 l149 -265 164 0 c128 0 163 3 159 13 -4 11 -345 576
-401 665 l-24 39 204 263 c112 145 204 265 204 267 0 2 -78 3 -174 3 l-173 0
-184 -274 -184 -273 -3 273 -2 274 -140 0 -140 0 0 -350z"/>
<path d="M2352 2620 c-70 -8 -109 -20 -64 -20 50 0 137 -44 189 -95 69 -69 88
-131 80 -259 -9 -155 -67 -298 -202 -501 -100 -150 -187 -256 -319 -388 -461
-463 -1065 -793 -1491 -814 -270 -13 -406 80 -441 302 l-6 40 -13 -32 c-7 -17
-23 -71 -35 -119 -31 -124 -26 -253 14 -341 75 -166 261 -239 535 -212 203 21
419 89 680 215 371 179 714 425 1022 733 311 310 495 580 590 861 30 88 32
106 33 230 1 128 0 138 -26 191 -66 133 -188 200 -389 212 -46 3 -117 2 -157
-3z"/>
<path d="M1340 1040 c0 -99 2 -180 5 -180 2 0 38 21 80 46 l75 45 0 135 0 134
-80 0 -80 0 0 -180z"/>
<path d="M1135 1102 c-3 -3 -5 -86 -5 -184 l0 -179 80 42 80 43 0 142 0 142
-75 -1 c-41 0 -77 -3 -80 -5z"/>
<path d="M920 815 l0 -155 63 24 c34 13 70 27 80 31 15 6 17 22 17 131 l0 124
-80 0 -80 0 0 -155z"/>
<path d="M720 724 l0 -126 28 6 c15 4 51 14 80 22 l52 15 0 104 0 105 -80 0
-80 0 0 -126z"/>
</g>
</svg>
